<?xml version="1.0" encoding="UTF-8" standalone="no"?>
<!DOCTYPE svg PUBLIC "-//W3C//DTD SVG 1.1//EN"
 "http://www.w3.org/Graphics/SVG/1.1/DTD/svg11.dtd">
<!-- Generated by graphviz version 2.43.0 (0)
 -->
<!-- Title: main Pages: 1 -->
<svg width="127pt" height="138pt"
 viewBox="0.00 0.00 127.00 138.00" xmlns="http://www.w3.org/2000/svg" xmlns:xlink="http://www.w3.org/1999/xlink">

<svg id="main" version="1.1" xmlns="http://www.w3.org/2000/svg" xmlns:xlink="http://www.w3.org/1999/xlink" xml:space="preserve" onload="init(evt)">
<style type="text/css"><![CDATA[
.node, .edge {opacity: 0.7;}
.node.selected, .edge.selected {opacity: 1;}
.edge:hover path { stroke: red; }
.edge:hover polygon { stroke: red; fill: red; }
]]></style>
<script type="application/ecmascript" xlink:href="svg.min.js"/>
<svg id="graph" class="graph">
<g id="graph0" class="graph" transform="scale(1 1) rotate(0) translate(4 134)">
<title>main</title>
<!-- Node1 -->
<g id="Node000001" class="node">
<title>Node1</title>
<g id="a_Node000001"><a xlink:title=" ">
<polygon fill="#999999" stroke="#666666" points="41,-74 0,-74 0,-55 41,-55 41,-74"/>
<text text-anchor="middle" x="20.5" y="-62" font-family="Helvetica,sans-Serif" font-size="10.00">main</text>
</a>
</g>
</g>
<!-- Node2 -->
<g id="Node000002" class="node">
<title>Node2</title>
<g id="a_Node000002"><a xlink:href="C-Func-pointer_2main_8c.html#ac9a4cea444404d88923f63d231b145f6" target="_top" xlink:title=" ">
<polygon fill="white" stroke="#666666" points="113.5,-130 82.5,-130 82.5,-111 113.5,-111 113.5,-130"/>
<text text-anchor="middle" x="98" y="-118" font-family="Helvetica,sans-Serif" font-size="10.00">inc</text>
</a>
</g>
</g>
<!-- Node1&#45;&gt;Node2 -->
<g id="edge1_Node000001_Node000002" class="edge">
<title>Node1&#45;&gt;Node2</title>
<g id="a_edge1_Node000001_Node000002"><a xlink:title=" ">
<path fill="none" stroke="#63b8ff" d="M34.65,-74.25C46.02,-82.69 62.66,-95.03 75.89,-104.84"/>
<polygon fill="#63b8ff" stroke="#63b8ff" points="73.88,-107.71 84,-110.86 78.05,-102.09 73.88,-107.71"/>
</a>
</g>
</g>
<!-- Node3 -->
<g id="Node000003" class="node">
<title>Node3</title>
<g id="a_Node000003"><a xlink:href="C-Func-pointer_2main_8c.html#a6b5ad522d78da0ba700142b2571e256c" target="_top" xlink:title=" ">
<polygon fill="white" stroke="#666666" points="114,-93 82,-93 82,-74 114,-74 114,-93"/>
<text text-anchor="middle" x="98" y="-81" font-family="Helvetica,sans-Serif" font-size="10.00">init</text>
</a>
</g>
</g>
<!-- Node1&#45;&gt;Node3 -->
<g id="edge2_Node000001_Node000003" class="edge">
<title>Node1&#45;&gt;Node3</title>
<g id="a_edge2_Node000001_Node000003"><a xlink:title=" ">
<path fill="none" stroke="#63b8ff" d="M41.34,-69.49C50.68,-71.84 61.92,-74.67 71.85,-77.17"/>
<polygon fill="#63b8ff" stroke="#63b8ff" points="71.03,-80.57 81.58,-79.62 72.74,-73.79 71.03,-80.57"/>
</a>
</g>
</g>
<!-- Node4 -->
<g id="Node000004" class="node">
<title>Node4</title>
<g id="a_Node000004"><a xlink:href="C-Func-pointer_2main_8c.html#a595b8fe6a1f06ee5d494f0d8ff35efb8" target="_top" xlink:title=" ">
<polygon fill="white" stroke="#666666" points="119,-56 77,-56 77,-37 119,-37 119,-56"/>
<text text-anchor="middle" x="98" y="-44" font-family="Helvetica,sans-Serif" font-size="10.00">show</text>
</a>
</g>
</g>
<!-- Node1&#45;&gt;Node4 -->
<g id="edge3_Node000001_Node000004" class="edge">
<title>Node1&#45;&gt;Node4</title>
<g id="a_edge3_Node000001_Node000004"><a xlink:title=" ">
<path fill="none" stroke="#63b8ff" d="M41.34,-59.77C49.19,-57.9 58.38,-55.71 67.01,-53.65"/>
<polygon fill="#63b8ff" stroke="#63b8ff" points="67.85,-57.05 76.77,-51.32 66.23,-50.24 67.85,-57.05"/>
</a>
</g>
</g>
<!-- Node5 -->
<g id="Node000005" class="node">
<title>Node5</title>
<g id="a_Node000005"><a xlink:href="C-Func-pointer_2main_8c.html#aa578f1c3a478f0c16cc1e19a419e4729" target="_top" xlink:title=" ">
<polygon fill="white" stroke="#666666" points="115,-19 81,-19 81,0 115,0 115,-19"/>
<text text-anchor="middle" x="98" y="-7" font-family="Helvetica,sans-Serif" font-size="10.00">sub</text>
</a>
</g>
</g>
<!-- Node1&#45;&gt;Node5 -->
<g id="edge4_Node000001_Node000005" class="edge">
<title>Node1&#45;&gt;Node5</title>
<g id="a_edge4_Node000001_Node000005"><a xlink:title=" ">
<path fill="none" stroke="#63b8ff" d="M34.65,-54.92C45.95,-46.69 62.45,-34.67 75.64,-25.06"/>
<polygon fill="#63b8ff" stroke="#63b8ff" points="77.72,-27.87 83.75,-19.16 73.6,-22.21 77.72,-27.87"/>
</a>
</g>
</g>
</g>
</svg>
</svg>

<style type='text/css'>
<![CDATA[
[data-mouse-over-selected='false'] { opacity: 0.7; }
[data-mouse-over-selected='true']  { opacity: 1.0; }
]]>
</style>
<script type="application/ecmascript"><![CDATA[
document.addEventListener('DOMContentLoaded', (event) => {
  highlightEdges();
  highlightAdjacentNodes();
});
]]></script>
</svg>
