<?xml version="1.0" encoding="UTF-8" standalone="no"?>
<!DOCTYPE svg PUBLIC "-//W3C//DTD SVG 1.1//EN"
 "http://www.w3.org/Graphics/SVG/1.1/DTD/svg11.dtd">
<!-- Generated by graphviz version 2.43.0 (0)
 -->
<!-- Title: thread_function Pages: 1 -->
<svg width="246pt" height="27pt"
 viewBox="0.00 0.00 246.00 27.00" xmlns="http://www.w3.org/2000/svg" xmlns:xlink="http://www.w3.org/1999/xlink">
<g id="graph0" class="graph" transform="scale(1 1) rotate(0) translate(4 23)">
<title>thread_function</title>
<!-- Node1 -->
<g id="Node000001" class="node">
<title>Node1</title>
<g id="a_Node000001"><a xlink:title=" ">
<polygon fill="#999999" stroke="#666666" points="93,-19 0,-19 0,0 93,0 93,-19"/>
<text text-anchor="middle" x="46.5" y="-7" font-family="Helvetica,sans-Serif" font-size="10.00">thread_function</text>
</a>
</g>
</g>
<!-- Node2 -->
<g id="Node000002" class="node">
<title>Node2</title>
<g id="a_Node000002"><a xlink:href="C-Unix-STD-Threads_2main_8c.html#a1cb97c3eeabb262b8fa130b26787e8c5" target="_top" xlink:title=" ">
<polygon fill="white" stroke="#666666" points="167,-19 129,-19 129,0 167,0 167,-19"/>
<text text-anchor="middle" x="148" y="-7" font-family="Helvetica,sans-Serif" font-size="10.00">proc</text>
</a>
</g>
</g>
<!-- Node1&#45;&gt;Node2 -->
<g id="edge1_Node000001_Node000002" class="edge">
<title>Node1&#45;&gt;Node2</title>
<g id="a_edge1_Node000001_Node000002"><a xlink:title=" ">
<path fill="none" stroke="#63b8ff" d="M93.17,-9.5C101.88,-9.5 110.76,-9.5 118.73,-9.5"/>
<polygon fill="#63b8ff" stroke="#63b8ff" points="118.93,-13 128.93,-9.5 118.93,-6 118.93,-13"/>
</a>
</g>
</g>
<!-- Node3 -->
<g id="Node000003" class="node">
<title>Node3</title>
<g id="a_Node000003"><a xlink:href="C-Unix-STD-Threads_2main_8c.html#a1af3b2e4cf0d5f2b98a9aab56888454d" target="_top" xlink:title=" ">
<polygon fill="white" stroke="#666666" points="238,-19 203,-19 203,0 238,0 238,-19"/>
<text text-anchor="middle" x="220.5" y="-7" font-family="Helvetica,sans-Serif" font-size="10.00">sort</text>
</a>
</g>
</g>
<!-- Node2&#45;&gt;Node3 -->
<g id="edge2_Node000002_Node000003" class="edge">
<title>Node2&#45;&gt;Node3</title>
<g id="a_edge2_Node000002_Node000003"><a xlink:title=" ">
<path fill="none" stroke="#63b8ff" d="M167.16,-9.5C174.84,-9.5 183.96,-9.5 192.42,-9.5"/>
<polygon fill="#63b8ff" stroke="#63b8ff" points="192.62,-13 202.62,-9.5 192.62,-6 192.62,-13"/>
</a>
</g>
</g>
</g>
</svg>
