<?xml version="1.0" encoding="UTF-8" standalone="no"?>
<!DOCTYPE svg PUBLIC "-//W3C//DTD SVG 1.1//EN"
 "http://www.w3.org/Graphics/SVG/1.1/DTD/svg11.dtd">
<!-- Generated by graphviz version 2.43.0 (0)
 -->
<!-- Title: main Pages: 1 -->
<svg width="323pt" height="27pt"
 viewBox="0.00 0.00 323.00 27.00" xmlns="http://www.w3.org/2000/svg" xmlns:xlink="http://www.w3.org/1999/xlink">
<g id="graph0" class="graph" transform="scale(1 1) rotate(0) translate(4 23)">
<title>main</title>
<!-- Node1 -->
<g id="Node000001" class="node">
<title>Node1</title>
<g id="a_Node000001"><a xlink:title=" ">
<polygon fill="#999999" stroke="#666666" points="41,-19 0,-19 0,0 41,0 41,-19"/>
<text text-anchor="middle" x="20.5" y="-7" font-family="Helvetica,sans-Serif" font-size="10.00">main</text>
</a>
</g>
</g>
<!-- Node2 -->
<g id="Node000002" class="node">
<title>Node2</title>
<g id="a_Node000002"><a xlink:href="C-Unix-STD-Threads_2main_8c.html#a6ac9570fad24030ea7da53044f1d4951" target="_top" xlink:title=" ">
<polygon fill="white" stroke="#666666" points="170,-19 77,-19 77,0 170,0 170,-19"/>
<text text-anchor="middle" x="123.5" y="-7" font-family="Helvetica,sans-Serif" font-size="10.00">thread_function</text>
</a>
</g>
</g>
<!-- Node1&#45;&gt;Node2 -->
<g id="edge1_Node000001_Node000002" class="edge">
<title>Node1&#45;&gt;Node2</title>
<g id="a_edge1_Node000001_Node000002"><a xlink:title=" ">
<path fill="none" stroke="#63b8ff" d="M41.45,-9.5C48.81,-9.5 57.54,-9.5 66.51,-9.5"/>
<polygon fill="#63b8ff" stroke="#63b8ff" points="66.67,-13 76.67,-9.5 66.67,-6 66.67,-13"/>
</a>
</g>
</g>
<!-- Node3 -->
<g id="Node000003" class="node">
<title>Node3</title>
<g id="a_Node000003"><a xlink:href="C-Unix-STD-Threads_2main_8c.html#a1cb97c3eeabb262b8fa130b26787e8c5" target="_top" xlink:title=" ">
<polygon fill="white" stroke="#666666" points="244,-19 206,-19 206,0 244,0 244,-19"/>
<text text-anchor="middle" x="225" y="-7" font-family="Helvetica,sans-Serif" font-size="10.00">proc</text>
</a>
</g>
</g>
<!-- Node2&#45;&gt;Node3 -->
<g id="edge2_Node000002_Node000003" class="edge">
<title>Node2&#45;&gt;Node3</title>
<g id="a_edge2_Node000002_Node000003"><a xlink:title=" ">
<path fill="none" stroke="#63b8ff" d="M170.17,-9.5C178.88,-9.5 187.76,-9.5 195.73,-9.5"/>
<polygon fill="#63b8ff" stroke="#63b8ff" points="195.93,-13 205.93,-9.5 195.93,-6 195.93,-13"/>
</a>
</g>
</g>
<!-- Node4 -->
<g id="Node000004" class="node">
<title>Node4</title>
<g id="a_Node000004"><a xlink:href="C-Unix-STD-Threads_2main_8c.html#a1af3b2e4cf0d5f2b98a9aab56888454d" target="_top" xlink:title=" ">
<polygon fill="white" stroke="#666666" points="315,-19 280,-19 280,0 315,0 315,-19"/>
<text text-anchor="middle" x="297.5" y="-7" font-family="Helvetica,sans-Serif" font-size="10.00">sort</text>
</a>
</g>
</g>
<!-- Node3&#45;&gt;Node4 -->
<g id="edge3_Node000003_Node000004" class="edge">
<title>Node3&#45;&gt;Node4</title>
<g id="a_edge3_Node000003_Node000004"><a xlink:title=" ">
<path fill="none" stroke="#63b8ff" d="M244.16,-9.5C251.84,-9.5 260.96,-9.5 269.42,-9.5"/>
<polygon fill="#63b8ff" stroke="#63b8ff" points="269.62,-13 279.62,-9.5 269.62,-6 269.62,-13"/>
</a>
</g>
</g>
</g>
</svg>
