<?xml version="1.0" encoding="UTF-8" standalone="no"?>
<!DOCTYPE svg PUBLIC "-//W3C//DTD SVG 1.1//EN"
 "http://www.w3.org/Graphics/SVG/1.1/DTD/svg11.dtd">
<!-- Generated by graphviz version 2.43.0 (0)
 -->
<!-- Title: src/C&#45;Unix&#45;STD&#45;Threads&#45;Files&#45;Assert/main.c Pages: 1 -->
<svg width="603pt" height="93pt"
 viewBox="0.00 0.00 603.00 93.00" xmlns="http://www.w3.org/2000/svg" xmlns:xlink="http://www.w3.org/1999/xlink">
<g id="graph0" class="graph" transform="scale(1 1) rotate(0) translate(4 89)">
<title>src/C&#45;Unix&#45;STD&#45;Threads&#45;Files&#45;Assert/main.c</title>
<!-- Node1 -->
<g id="Node000001" class="node">
<title>Node1</title>
<g id="a_Node000001"><a xlink:title=" ">
<polygon fill="#999999" stroke="#666666" points="359,-85 227,-85 227,-55 359,-55 359,-85"/>
<text text-anchor="start" x="235" y="-73" font-family="Helvetica,sans-Serif" font-size="10.00">src/C&#45;Unix&#45;STD&#45;Threads</text>
<text text-anchor="middle" x="293" y="-62" font-family="Helvetica,sans-Serif" font-size="10.00">&#45;Files&#45;Assert/main.c</text>
</a>
</g>
</g>
<!-- Node2 -->
<g id="Node000002" class="node">
<title>Node2</title>
<g id="a_Node000002"><a xlink:title=" ">
<polygon fill="#e0e0e0" stroke="#999999" points="56,-19 0,-19 0,0 56,0 56,-19"/>
<text text-anchor="middle" x="28" y="-7" font-family="Helvetica,sans-Serif" font-size="10.00">unistd.h</text>
</a>
</g>
</g>
<!-- Node1&#45;&gt;Node2 -->
<g id="edge1_Node000001_Node000002" class="edge">
<title>Node1&#45;&gt;Node2</title>
<g id="a_edge1_Node000001_Node000002"><a xlink:title=" ">
<path fill="none" stroke="#63b8ff" d="M228.1,-54.95C184.86,-45.54 126.5,-32.77 66.34,-19.28"/>
<polygon fill="#63b8ff" stroke="#63b8ff" points="66.8,-15.8 56.28,-17.03 65.27,-22.63 66.8,-15.8"/>
</a>
</g>
</g>
<!-- Node3 -->
<g id="Node000003" class="node">
<title>Node3</title>
<g id="a_Node000003"><a xlink:title=" ">
<polygon fill="#e0e0e0" stroke="#999999" points="127.5,-19 74.5,-19 74.5,0 127.5,0 127.5,-19"/>
<text text-anchor="middle" x="101" y="-7" font-family="Helvetica,sans-Serif" font-size="10.00">stdlib.h</text>
</a>
</g>
</g>
<!-- Node1&#45;&gt;Node3 -->
<g id="edge2_Node000001_Node000003" class="edge">
<title>Node1&#45;&gt;Node3</title>
<g id="a_edge2_Node000001_Node000003"><a xlink:title=" ">
<path fill="none" stroke="#63b8ff" d="M247.01,-54.99C213.38,-44.74 168.38,-31.03 137.26,-21.55"/>
<polygon fill="#63b8ff" stroke="#63b8ff" points="138.27,-18.2 127.68,-18.63 136.23,-24.89 138.27,-18.2"/>
</a>
</g>
</g>
<!-- Node4 -->
<g id="Node000004" class="node">
<title>Node4</title>
<g id="a_Node000004"><a xlink:title=" ">
<polygon fill="#e0e0e0" stroke="#999999" points="196,-19 146,-19 146,0 196,0 196,-19"/>
<text text-anchor="middle" x="171" y="-7" font-family="Helvetica,sans-Serif" font-size="10.00">stdio.h</text>
</a>
</g>
</g>
<!-- Node1&#45;&gt;Node4 -->
<g id="edge3_Node000001_Node000004" class="edge">
<title>Node1&#45;&gt;Node4</title>
<g id="a_edge3_Node000001_Node000004"><a xlink:title=" ">
<path fill="none" stroke="#63b8ff" d="M263.78,-54.99C243.88,-45.45 217.72,-32.9 198.25,-23.57"/>
<polygon fill="#63b8ff" stroke="#63b8ff" points="199.55,-20.31 189.02,-19.14 196.52,-26.62 199.55,-20.31"/>
</a>
</g>
</g>
<!-- Node5 -->
<g id="Node000005" class="node">
<title>Node5</title>
<g id="a_Node000005"><a xlink:title=" ">
<polygon fill="#e0e0e0" stroke="#999999" points="286,-19 214,-19 214,0 286,0 286,-19"/>
<text text-anchor="middle" x="250" y="-7" font-family="Helvetica,sans-Serif" font-size="10.00">sys/types.h</text>
</a>
</g>
</g>
<!-- Node1&#45;&gt;Node5 -->
<g id="edge4_Node000001_Node000005" class="edge">
<title>Node1&#45;&gt;Node5</title>
<g id="a_edge4_Node000001_Node000005"><a xlink:title=" ">
<path fill="none" stroke="#63b8ff" d="M282.59,-54.84C276.54,-46.61 268.88,-36.18 262.5,-27.51"/>
<polygon fill="#63b8ff" stroke="#63b8ff" points="265.19,-25.25 256.44,-19.27 259.55,-29.4 265.19,-25.25"/>
</a>
</g>
</g>
<!-- Node6 -->
<g id="Node000006" class="node">
<title>Node6</title>
<g id="a_Node000006"><a xlink:title=" ">
<polygon fill="#e0e0e0" stroke="#999999" points="368,-19 304,-19 304,0 368,0 368,-19"/>
<text text-anchor="middle" x="336" y="-7" font-family="Helvetica,sans-Serif" font-size="10.00">sys/stat.h</text>
</a>
</g>
</g>
<!-- Node1&#45;&gt;Node6 -->
<g id="edge5_Node000001_Node000006" class="edge">
<title>Node1&#45;&gt;Node6</title>
<g id="a_edge5_Node000001_Node000006"><a xlink:title=" ">
<path fill="none" stroke="#63b8ff" d="M303.41,-54.84C309.46,-46.61 317.12,-36.18 323.5,-27.51"/>
<polygon fill="#63b8ff" stroke="#63b8ff" points="326.45,-29.4 329.56,-19.27 320.81,-25.25 326.45,-29.4"/>
</a>
</g>
</g>
<!-- Node7 -->
<g id="Node000007" class="node">
<title>Node7</title>
<g id="a_Node000007"><a xlink:title=" ">
<polygon fill="#e0e0e0" stroke="#999999" points="449.5,-19 386.5,-19 386.5,0 449.5,0 449.5,-19"/>
<text text-anchor="middle" x="418" y="-7" font-family="Helvetica,sans-Serif" font-size="10.00">pthread.h</text>
</a>
</g>
</g>
<!-- Node1&#45;&gt;Node7 -->
<g id="edge6_Node000001_Node000007" class="edge">
<title>Node1&#45;&gt;Node7</title>
<g id="a_edge6_Node000001_Node000007"><a xlink:title=" ">
<path fill="none" stroke="#63b8ff" d="M322.94,-54.99C343.42,-45.4 370.38,-32.79 390.35,-23.44"/>
<polygon fill="#63b8ff" stroke="#63b8ff" points="391.97,-26.55 399.54,-19.14 389,-20.21 391.97,-26.55"/>
</a>
</g>
</g>
<!-- Node8 -->
<g id="Node000008" class="node">
<title>Node8</title>
<g id="a_Node000008"><a xlink:title=" ">
<polygon fill="#e0e0e0" stroke="#999999" points="520.5,-19 467.5,-19 467.5,0 520.5,0 520.5,-19"/>
<text text-anchor="middle" x="494" y="-7" font-family="Helvetica,sans-Serif" font-size="10.00">string.h</text>
</a>
</g>
</g>
<!-- Node1&#45;&gt;Node8 -->
<g id="edge7_Node000001_Node000008" class="edge">
<title>Node1&#45;&gt;Node8</title>
<g id="a_edge7_Node000001_Node000008"><a xlink:title=" ">
<path fill="none" stroke="#63b8ff" d="M341.14,-54.99C376.88,-44.59 424.87,-30.62 457.48,-21.13"/>
<polygon fill="#63b8ff" stroke="#63b8ff" points="458.87,-24.37 467.49,-18.22 456.91,-17.65 458.87,-24.37"/>
</a>
</g>
</g>
<!-- Node9 -->
<g id="Node000009" class="node">
<title>Node9</title>
<g id="a_Node000009"><a xlink:title=" ">
<polygon fill="#e0e0e0" stroke="#999999" points="595,-19 539,-19 539,0 595,0 595,-19"/>
<text text-anchor="middle" x="567" y="-7" font-family="Helvetica,sans-Serif" font-size="10.00">assert.h</text>
</a>
</g>
</g>
<!-- Node1&#45;&gt;Node9 -->
<g id="edge8_Node000001_Node000009" class="edge">
<title>Node1&#45;&gt;Node9</title>
<g id="a_edge8_Node000001_Node000009"><a xlink:title=" ">
<path fill="none" stroke="#63b8ff" d="M359.22,-55.36C404.37,-45.98 465.79,-33.08 528.63,-19.27"/>
<polygon fill="#63b8ff" stroke="#63b8ff" points="529.72,-22.62 538.73,-17.05 528.21,-15.78 529.72,-22.62"/>
</a>
</g>
</g>
</g>
</svg>
