<?xml version="1.0" encoding="UTF-8" standalone="no"?>
<!DOCTYPE svg PUBLIC "-//W3C//DTD SVG 1.1//EN"
 "http://www.w3.org/Graphics/SVG/1.1/DTD/svg11.dtd">
<!-- Generated by graphviz version 2.43.0 (0)
 -->
<!-- Title: main Pages: 1 -->
<svg width="257pt" height="101pt"
 viewBox="0.00 0.00 257.00 101.00" xmlns="http://www.w3.org/2000/svg" xmlns:xlink="http://www.w3.org/1999/xlink">
<g id="graph0" class="graph" transform="scale(1 1) rotate(0) translate(4 97)">
<title>main</title>
<!-- Node1 -->
<g id="Node000001" class="node">
<title>Node1</title>
<g id="a_Node000001"><a xlink:title=" ">
<polygon fill="#999999" stroke="#666666" points="41,-56 0,-56 0,-37 41,-37 41,-56"/>
<text text-anchor="middle" x="20.5" y="-44" font-family="Helvetica,sans-Serif" font-size="10.00">main</text>
</a>
</g>
</g>
<!-- Node2 -->
<g id="Node000002" class="node">
<title>Node2</title>
<g id="a_Node000002"><a xlink:href="C-Unix-STD-Threads-Files-Assert_2main_8c.html#adcf7e4cfa20ac15c29cf0e5bfb15f1f0" target="_top" xlink:title=" ">
<polygon fill="white" stroke="#666666" points="136,-56 77,-56 77,-37 136,-37 136,-56"/>
<text text-anchor="middle" x="106.5" y="-44" font-family="Helvetica,sans-Serif" font-size="10.00">funzione</text>
</a>
</g>
</g>
<!-- Node1&#45;&gt;Node2 -->
<g id="edge1_Node000001_Node000002" class="edge">
<title>Node1&#45;&gt;Node2</title>
<g id="a_edge1_Node000001_Node000002"><a xlink:title=" ">
<path fill="none" stroke="#63b8ff" d="M41.41,-46.5C49.01,-46.5 57.96,-46.5 66.72,-46.5"/>
<polygon fill="#63b8ff" stroke="#63b8ff" points="66.83,-50 76.83,-46.5 66.83,-43 66.83,-50"/>
</a>
</g>
</g>
<!-- Node3 -->
<g id="Node000003" class="node">
<title>Node3</title>
<g id="a_Node000003"><a xlink:href="C-Unix-STD-Threads-Files-Assert_2main_8c.html#a3537ea331a49d96f98776366f25ba0c2" target="_top" xlink:title=" ">
<polygon fill="white" stroke="#666666" points="244.5,-93 176.5,-93 176.5,-74 244.5,-74 244.5,-93"/>
<text text-anchor="middle" x="210.5" y="-81" font-family="Helvetica,sans-Serif" font-size="10.00">bubblesort</text>
</a>
</g>
</g>
<!-- Node2&#45;&gt;Node3 -->
<g id="edge2_Node000002_Node000003" class="edge">
<title>Node2&#45;&gt;Node3</title>
<g id="a_edge2_Node000002_Node000003"><a xlink:title=" ">
<path fill="none" stroke="#63b8ff" d="M133.77,-56.03C145.81,-60.4 160.28,-65.64 173.33,-70.38"/>
<polygon fill="#63b8ff" stroke="#63b8ff" points="172.37,-73.76 182.97,-73.88 174.76,-67.17 172.37,-73.76"/>
</a>
</g>
</g>
<!-- Node4 -->
<g id="Node000004" class="node">
<title>Node4</title>
<g id="a_Node000004"><a xlink:href="C-Unix-STD-Threads-Files-Assert_2main_8c.html#ae076966ba86ec537886a5ae77b8c232c" target="_top" xlink:title=" ">
<polygon fill="white" stroke="#666666" points="244.5,-56 176.5,-56 176.5,-37 244.5,-37 244.5,-56"/>
<text text-anchor="middle" x="210.5" y="-44" font-family="Helvetica,sans-Serif" font-size="10.00">ReadFileIn</text>
</a>
</g>
</g>
<!-- Node2&#45;&gt;Node4 -->
<g id="edge3_Node000002_Node000004" class="edge">
<title>Node2&#45;&gt;Node4</title>
<g id="a_edge3_Node000002_Node000004"><a xlink:title=" ">
<path fill="none" stroke="#63b8ff" d="M136.18,-46.5C145.46,-46.5 155.95,-46.5 166.05,-46.5"/>
<polygon fill="#63b8ff" stroke="#63b8ff" points="166.35,-50 176.35,-46.5 166.35,-43 166.35,-50"/>
</a>
</g>
</g>
<!-- Node5 -->
<g id="Node000005" class="node">
<title>Node5</title>
<g id="a_Node000005"><a xlink:href="C-Unix-STD-Threads-Files-Assert_2main_8c.html#af75094754983d7fa31c5bbebc9b95825" target="_top" xlink:title=" ">
<polygon fill="white" stroke="#666666" points="249,-19 172,-19 172,0 249,0 249,-19"/>
<text text-anchor="middle" x="210.5" y="-7" font-family="Helvetica,sans-Serif" font-size="10.00">WriteFileOut</text>
</a>
</g>
</g>
<!-- Node2&#45;&gt;Node5 -->
<g id="edge4_Node000002_Node000005" class="edge">
<title>Node2&#45;&gt;Node5</title>
<g id="a_edge4_Node000002_Node000005"><a xlink:title=" ">
<path fill="none" stroke="#63b8ff" d="M133.77,-36.97C145.81,-32.6 160.28,-27.36 173.33,-22.62"/>
<polygon fill="#63b8ff" stroke="#63b8ff" points="174.76,-25.83 182.97,-19.12 172.37,-19.24 174.76,-25.83"/>
</a>
</g>
</g>
</g>
</svg>
