<?xml version="1.0" encoding="UTF-8" standalone="no"?>
<!DOCTYPE svg PUBLIC "-//W3C//DTD SVG 1.1//EN"
 "http://www.w3.org/Graphics/SVG/1.1/DTD/svg11.dtd">
<!-- Generated by graphviz version 2.43.0 (0)
 -->
<!-- Title: file Pages: 1 -->
<svg width="114pt" height="72pt"
 viewBox="0.00 0.00 114.00 72.00" xmlns="http://www.w3.org/2000/svg" xmlns:xlink="http://www.w3.org/1999/xlink">
<g id="graph0" class="graph" transform="scale(1 1) rotate(0) translate(4 68)">
<title>file</title>
<!-- Node1 -->
<g id="Node000001" class="node">
<title>Node1</title>
<g id="a_Node000001"><a xlink:title=" ">
<polygon fill="#999999" stroke="transparent" points="106,-64 0,-64 0,0 106,0 106,-64"/>
<text text-anchor="start" x="45" y="-52" font-family="Helvetica,sans-Serif" font-size="10.00">file</text>
<text text-anchor="start" x="4" y="-37" font-family="Helvetica,sans-Serif" font-size="10.00">+</text>
<text text-anchor="start" x="17" y="-37" font-family="Helvetica,sans-Serif" font-size="10.00">char * input_file</text>
<text text-anchor="start" x="4" y="-22" font-family="Helvetica,sans-Serif" font-size="10.00">+</text>
<text text-anchor="start" x="17" y="-22" font-family="Helvetica,sans-Serif" font-size="10.00">char * output_file</text>
<text text-anchor="start" x="51" y="-7" font-family="Helvetica,sans-Serif" font-size="10.00"> </text>
<polygon fill="#666666" stroke="#666666" points="0,-47 0,-47 106,-47 106,-47 0,-47"/>
<polygon fill="#666666" stroke="#666666" points="0,-17 0,-17 15,-17 15,-17 0,-17"/>
<polygon fill="#666666" stroke="#666666" points="15,-17 15,-17 106,-17 106,-17 15,-17"/>
<polygon fill="none" stroke="#666666" points="0,0 0,-64 106,-64 106,0 0,0"/>
</a>
</g>
</g>
</g>
</svg>
