<?xml version="1.0" encoding="UTF-8" standalone="no"?>
<!DOCTYPE svg PUBLIC "-//W3C//DTD SVG 1.1//EN"
 "http://www.w3.org/Graphics/SVG/1.1/DTD/svg11.dtd">
<!-- Generated by graphviz version 2.43.0 (0)
 -->
<!-- Title: main Pages: 1 -->
<svg width="127pt" height="142pt"
 viewBox="0.00 0.00 127.00 142.00" xmlns="http://www.w3.org/2000/svg" xmlns:xlink="http://www.w3.org/1999/xlink">
<g id="graph0" class="graph" transform="scale(1 1) rotate(0) translate(4 138)">
<title>main</title>
<!-- Node1 -->
<g id="node1" class="node">
<title>Node1</title>
<g id="a_node1"><a xlink:title=" ">
<polygon fill="#bfbfbf" stroke="black" points="0,-57.5 0,-76.5 41,-76.5 41,-57.5 0,-57.5"/>
<text text-anchor="middle" x="20.5" y="-64.5" font-family="Helvetica,sans-Serif" font-size="10.00">main</text>
</a>
</g>
</g>
<!-- Node2 -->
<g id="node2" class="node">
<title>Node2</title>
<g id="a_node2"><a xlink:href="C-Func-pointer_2main_8c.html#ac9a4cea444404d88923f63d231b145f6" target="_top" xlink:title=" ">
<polygon fill="none" stroke="black" points="82.5,-114.5 82.5,-133.5 113.5,-133.5 113.5,-114.5 82.5,-114.5"/>
<text text-anchor="middle" x="98" y="-121.5" font-family="Helvetica,sans-Serif" font-size="10.00">inc</text>
</a>
</g>
</g>
<!-- Node1&#45;&gt;Node2 -->
<g id="edge1" class="edge">
<title>Node1&#45;&gt;Node2</title>
<path fill="none" stroke="midnightblue" d="M34.31,-76.67C45.77,-85.32 62.77,-98.16 76.18,-108.28"/>
<polygon fill="midnightblue" stroke="midnightblue" points="74.29,-111.24 84.38,-114.47 78.51,-105.65 74.29,-111.24"/>
</g>
<!-- Node3 -->
<g id="node3" class="node">
<title>Node3</title>
<g id="a_node3"><a xlink:href="C-Func-pointer_2main_8c.html#a51ca5fad6127bdadbc5b00d91433dde3" target="_top" xlink:title=" ">
<polygon fill="none" stroke="black" points="82,-76.5 82,-95.5 114,-95.5 114,-76.5 82,-76.5"/>
<text text-anchor="middle" x="98" y="-83.5" font-family="Helvetica,sans-Serif" font-size="10.00">init</text>
</a>
</g>
</g>
<!-- Node1&#45;&gt;Node3 -->
<g id="edge2" class="edge">
<title>Node1&#45;&gt;Node3</title>
<path fill="none" stroke="midnightblue" d="M41.34,-71.99C50.68,-74.34 61.92,-77.17 71.85,-79.67"/>
<polygon fill="midnightblue" stroke="midnightblue" points="71.03,-83.07 81.58,-82.12 72.74,-76.29 71.03,-83.07"/>
</g>
<!-- Node4 -->
<g id="node4" class="node">
<title>Node4</title>
<g id="a_node4"><a xlink:href="C-Func-pointer_2main_8c.html#a595b8fe6a1f06ee5d494f0d8ff35efb8" target="_top" xlink:title=" ">
<polygon fill="none" stroke="black" points="77,-38.5 77,-57.5 119,-57.5 119,-38.5 77,-38.5"/>
<text text-anchor="middle" x="98" y="-45.5" font-family="Helvetica,sans-Serif" font-size="10.00">show</text>
</a>
</g>
</g>
<!-- Node1&#45;&gt;Node4 -->
<g id="edge3" class="edge">
<title>Node1&#45;&gt;Node4</title>
<path fill="none" stroke="midnightblue" d="M41.34,-62.01C49.19,-60.03 58.38,-57.72 67.01,-55.55"/>
<polygon fill="midnightblue" stroke="midnightblue" points="67.93,-58.93 76.77,-53.09 66.22,-52.14 67.93,-58.93"/>
</g>
<!-- Node5 -->
<g id="node5" class="node">
<title>Node5</title>
<g id="a_node5"><a xlink:href="C-Func-pointer_2main_8c.html#aa578f1c3a478f0c16cc1e19a419e4729" target="_top" xlink:title=" ">
<polygon fill="none" stroke="black" points="81,-0.5 81,-19.5 115,-19.5 115,-0.5 81,-0.5"/>
<text text-anchor="middle" x="98" y="-7.5" font-family="Helvetica,sans-Serif" font-size="10.00">sub</text>
</a>
</g>
</g>
<!-- Node1&#45;&gt;Node5 -->
<g id="edge4" class="edge">
<title>Node1&#45;&gt;Node5</title>
<path fill="none" stroke="midnightblue" d="M34.31,-57.33C45.77,-48.68 62.77,-35.84 76.18,-25.72"/>
<polygon fill="midnightblue" stroke="midnightblue" points="78.51,-28.35 84.38,-19.53 74.29,-22.76 78.51,-28.35"/>
</g>
</g>
</svg>
