<?xml version="1.0" encoding="UTF-8" standalone="no"?>
<!DOCTYPE svg PUBLIC "-//W3C//DTD SVG 1.1//EN"
 "http://www.w3.org/Graphics/SVG/1.1/DTD/svg11.dtd">
<!-- Generated by graphviz version 2.43.0 (0)
 -->
<!-- Title: main Pages: 1 -->
<svg width="257pt" height="104pt"
 viewBox="0.00 0.00 257.00 104.00" xmlns="http://www.w3.org/2000/svg" xmlns:xlink="http://www.w3.org/1999/xlink">
<g id="graph0" class="graph" transform="scale(1 1) rotate(0) translate(4 100)">
<title>main</title>
<!-- Node1 -->
<g id="node1" class="node">
<title>Node1</title>
<g id="a_node1"><a xlink:title=" ">
<polygon fill="#bfbfbf" stroke="black" points="0,-38.5 0,-57.5 41,-57.5 41,-38.5 0,-38.5"/>
<text text-anchor="middle" x="20.5" y="-45.5" font-family="Helvetica,sans-Serif" font-size="10.00">main</text>
</a>
</g>
</g>
<!-- Node2 -->
<g id="node2" class="node">
<title>Node2</title>
<g id="a_node2"><a xlink:href="C-Unix-STD-Threads-Files-Assert_2main_8c.html#aa4848d9d4fae67f64d8e89c42f13e445" target="_top" xlink:title=" ">
<polygon fill="none" stroke="black" points="77,-38.5 77,-57.5 136,-57.5 136,-38.5 77,-38.5"/>
<text text-anchor="middle" x="106.5" y="-45.5" font-family="Helvetica,sans-Serif" font-size="10.00">funzione</text>
</a>
</g>
</g>
<!-- Node1&#45;&gt;Node2 -->
<g id="edge1" class="edge">
<title>Node1&#45;&gt;Node2</title>
<path fill="none" stroke="midnightblue" d="M41.41,-48C49.01,-48 57.96,-48 66.72,-48"/>
<polygon fill="midnightblue" stroke="midnightblue" points="66.83,-51.5 76.83,-48 66.83,-44.5 66.83,-51.5"/>
</g>
<!-- Node3 -->
<g id="node3" class="node">
<title>Node3</title>
<g id="a_node3"><a xlink:href="C-Unix-STD-Threads-Files-Assert_2main_8c.html#a3537ea331a49d96f98776366f25ba0c2" target="_top" xlink:title=" ">
<polygon fill="none" stroke="black" points="176.5,-76.5 176.5,-95.5 244.5,-95.5 244.5,-76.5 176.5,-76.5"/>
<text text-anchor="middle" x="210.5" y="-83.5" font-family="Helvetica,sans-Serif" font-size="10.00">bubblesort</text>
</a>
</g>
</g>
<!-- Node2&#45;&gt;Node3 -->
<g id="edge2" class="edge">
<title>Node2&#45;&gt;Node3</title>
<path fill="none" stroke="midnightblue" d="M133.24,-57.59C145.68,-62.22 160.81,-67.86 174.3,-72.89"/>
<polygon fill="midnightblue" stroke="midnightblue" points="173.18,-76.2 183.77,-76.41 175.62,-69.64 173.18,-76.2"/>
</g>
<!-- Node4 -->
<g id="node4" class="node">
<title>Node4</title>
<g id="a_node4"><a xlink:href="C-Unix-STD-Threads-Files-Assert_2main_8c.html#ae076966ba86ec537886a5ae77b8c232c" target="_top" xlink:title=" ">
<polygon fill="none" stroke="black" points="177,-38.5 177,-57.5 244,-57.5 244,-38.5 177,-38.5"/>
<text text-anchor="middle" x="210.5" y="-45.5" font-family="Helvetica,sans-Serif" font-size="10.00">ReadFileIn</text>
</a>
</g>
</g>
<!-- Node2&#45;&gt;Node4 -->
<g id="edge3" class="edge">
<title>Node2&#45;&gt;Node4</title>
<path fill="none" stroke="midnightblue" d="M136.18,-48C145.64,-48 156.37,-48 166.65,-48"/>
<polygon fill="midnightblue" stroke="midnightblue" points="166.72,-51.5 176.72,-48 166.72,-44.5 166.72,-51.5"/>
</g>
<!-- Node5 -->
<g id="node5" class="node">
<title>Node5</title>
<g id="a_node5"><a xlink:href="C-Unix-STD-Threads-Files-Assert_2main_8c.html#af75094754983d7fa31c5bbebc9b95825" target="_top" xlink:title=" ">
<polygon fill="none" stroke="black" points="172,-0.5 172,-19.5 249,-19.5 249,-0.5 172,-0.5"/>
<text text-anchor="middle" x="210.5" y="-7.5" font-family="Helvetica,sans-Serif" font-size="10.00">WriteFileOut</text>
</a>
</g>
</g>
<!-- Node2&#45;&gt;Node5 -->
<g id="edge4" class="edge">
<title>Node2&#45;&gt;Node5</title>
<path fill="none" stroke="midnightblue" d="M133.24,-38.41C145.68,-33.78 160.81,-28.14 174.3,-23.11"/>
<polygon fill="midnightblue" stroke="midnightblue" points="175.62,-26.36 183.77,-19.59 173.18,-19.8 175.62,-26.36"/>
</g>
</g>
</svg>
