<?xml version="1.0" encoding="UTF-8" standalone="no"?>
<!DOCTYPE svg PUBLIC "-//W3C//DTD SVG 1.1//EN"
 "http://www.w3.org/Graphics/SVG/1.1/DTD/svg11.dtd">
<!-- Generated by graphviz version 2.43.0 (0)
 -->
<!-- Title: funzione Pages: 1 -->
<svg width="180pt" height="104pt"
 viewBox="0.00 0.00 180.00 104.00" xmlns="http://www.w3.org/2000/svg" xmlns:xlink="http://www.w3.org/1999/xlink">
<g id="graph0" class="graph" transform="scale(1 1) rotate(0) translate(4 100)">
<title>funzione</title>
<!-- Node1 -->
<g id="node1" class="node">
<title>Node1</title>
<g id="a_node1"><a xlink:title=" ">
<polygon fill="#bfbfbf" stroke="black" points="0,-38.5 0,-57.5 59,-57.5 59,-38.5 0,-38.5"/>
<text text-anchor="middle" x="29.5" y="-45.5" font-family="Helvetica,sans-Serif" font-size="10.00">funzione</text>
</a>
</g>
</g>
<!-- Node2 -->
<g id="node2" class="node">
<title>Node2</title>
<g id="a_node2"><a xlink:href="C-Unix-STD-Threads-Files-Assert_2main_8c.html#a3537ea331a49d96f98776366f25ba0c2" target="_top" xlink:title=" ">
<polygon fill="none" stroke="black" points="99.5,-76.5 99.5,-95.5 167.5,-95.5 167.5,-76.5 99.5,-76.5"/>
<text text-anchor="middle" x="133.5" y="-83.5" font-family="Helvetica,sans-Serif" font-size="10.00">bubblesort</text>
</a>
</g>
</g>
<!-- Node1&#45;&gt;Node2 -->
<g id="edge1" class="edge">
<title>Node1&#45;&gt;Node2</title>
<path fill="none" stroke="midnightblue" d="M56.24,-57.59C68.68,-62.22 83.81,-67.86 97.3,-72.89"/>
<polygon fill="midnightblue" stroke="midnightblue" points="96.18,-76.2 106.77,-76.41 98.62,-69.64 96.18,-76.2"/>
</g>
<!-- Node3 -->
<g id="node3" class="node">
<title>Node3</title>
<g id="a_node3"><a xlink:href="C-Unix-STD-Threads-Files-Assert_2main_8c.html#ae076966ba86ec537886a5ae77b8c232c" target="_top" xlink:title=" ">
<polygon fill="none" stroke="black" points="100,-38.5 100,-57.5 167,-57.5 167,-38.5 100,-38.5"/>
<text text-anchor="middle" x="133.5" y="-45.5" font-family="Helvetica,sans-Serif" font-size="10.00">ReadFileIn</text>
</a>
</g>
</g>
<!-- Node1&#45;&gt;Node3 -->
<g id="edge2" class="edge">
<title>Node1&#45;&gt;Node3</title>
<path fill="none" stroke="midnightblue" d="M59.18,-48C68.64,-48 79.37,-48 89.65,-48"/>
<polygon fill="midnightblue" stroke="midnightblue" points="89.72,-51.5 99.72,-48 89.72,-44.5 89.72,-51.5"/>
</g>
<!-- Node4 -->
<g id="node4" class="node">
<title>Node4</title>
<g id="a_node4"><a xlink:href="C-Unix-STD-Threads-Files-Assert_2main_8c.html#af75094754983d7fa31c5bbebc9b95825" target="_top" xlink:title=" ">
<polygon fill="none" stroke="black" points="95,-0.5 95,-19.5 172,-19.5 172,-0.5 95,-0.5"/>
<text text-anchor="middle" x="133.5" y="-7.5" font-family="Helvetica,sans-Serif" font-size="10.00">WriteFileOut</text>
</a>
</g>
</g>
<!-- Node1&#45;&gt;Node4 -->
<g id="edge3" class="edge">
<title>Node1&#45;&gt;Node4</title>
<path fill="none" stroke="midnightblue" d="M56.24,-38.41C68.68,-33.78 83.81,-28.14 97.3,-23.11"/>
<polygon fill="midnightblue" stroke="midnightblue" points="98.62,-26.36 106.77,-19.59 96.18,-19.8 98.62,-26.36"/>
</g>
</g>
</svg>
