<?xml version="1.0" encoding="UTF-8" standalone="no"?>
<!DOCTYPE svg PUBLIC "-//W3C//DTD SVG 1.1//EN"
 "http://www.w3.org/Graphics/SVG/1.1/DTD/svg11.dtd">
<!-- Generated by graphviz version 2.43.0 (0)
 -->
<!-- Title: src/C&#45;Unix&#45;STD&#45;Signal&#45;Fork&#45;Pause&#45;Kill&#45;Pipe/main.c Pages: 1 -->
<svg width="414pt" height="106pt"
 viewBox="0.00 0.00 414.00 106.00" xmlns="http://www.w3.org/2000/svg" xmlns:xlink="http://www.w3.org/1999/xlink">
<g id="graph0" class="graph" transform="scale(1 1) rotate(0) translate(4 102)">
<title>src/C&#45;Unix&#45;STD&#45;Signal&#45;Fork&#45;Pause&#45;Kill&#45;Pipe/main.c</title>
<!-- Node1 -->
<g id="node1" class="node">
<title>Node1</title>
<g id="a_node1"><a xlink:title=" ">
<polygon fill="#bfbfbf" stroke="black" points="142.5,-56.5 142.5,-97.5 266.5,-97.5 266.5,-56.5 142.5,-56.5"/>
<text text-anchor="start" x="150.5" y="-85.5" font-family="Helvetica,sans-Serif" font-size="10.00">src/C&#45;Unix&#45;STD&#45;Signal</text>
<text text-anchor="start" x="150.5" y="-74.5" font-family="Helvetica,sans-Serif" font-size="10.00">&#45;Fork&#45;Pause&#45;Kill&#45;Pipe</text>
<text text-anchor="middle" x="204.5" y="-63.5" font-family="Helvetica,sans-Serif" font-size="10.00">/main.c</text>
</a>
</g>
</g>
<!-- Node2 -->
<g id="node2" class="node">
<title>Node2</title>
<g id="a_node2"><a xlink:title=" ">
<polygon fill="none" stroke="#bfbfbf" points="0,-0.5 0,-19.5 53,-19.5 53,-0.5 0,-0.5"/>
<text text-anchor="middle" x="26.5" y="-7.5" font-family="Helvetica,sans-Serif" font-size="10.00">stdlib.h</text>
</a>
</g>
</g>
<!-- Node1&#45;&gt;Node2 -->
<g id="edge1" class="edge">
<title>Node1&#45;&gt;Node2</title>
<path fill="none" stroke="midnightblue" d="M151.09,-56.5C121.44,-45.67 85.48,-32.54 59.83,-23.17"/>
<polygon fill="midnightblue" stroke="midnightblue" points="60.79,-19.8 50.19,-19.65 58.39,-26.37 60.79,-19.8"/>
</g>
<!-- Node3 -->
<g id="node3" class="node">
<title>Node3</title>
<g id="a_node3"><a xlink:title=" ">
<polygon fill="none" stroke="#bfbfbf" points="71.5,-0.5 71.5,-19.5 121.5,-19.5 121.5,-0.5 71.5,-0.5"/>
<text text-anchor="middle" x="96.5" y="-7.5" font-family="Helvetica,sans-Serif" font-size="10.00">stdio.h</text>
</a>
</g>
</g>
<!-- Node1&#45;&gt;Node3 -->
<g id="edge2" class="edge">
<title>Node1&#45;&gt;Node3</title>
<path fill="none" stroke="midnightblue" d="M172.1,-56.5C155.22,-46.34 134.97,-34.16 119.68,-24.95"/>
<polygon fill="midnightblue" stroke="midnightblue" points="121.25,-21.81 110.88,-19.65 117.64,-27.81 121.25,-21.81"/>
</g>
<!-- Node4 -->
<g id="node4" class="node">
<title>Node4</title>
<g id="a_node4"><a xlink:title=" ">
<polygon fill="none" stroke="#bfbfbf" points="139.5,-0.5 139.5,-19.5 195.5,-19.5 195.5,-0.5 139.5,-0.5"/>
<text text-anchor="middle" x="167.5" y="-7.5" font-family="Helvetica,sans-Serif" font-size="10.00">unistd.h</text>
</a>
</g>
</g>
<!-- Node1&#45;&gt;Node4 -->
<g id="edge3" class="edge">
<title>Node1&#45;&gt;Node4</title>
<path fill="none" stroke="midnightblue" d="M193.4,-56.5C188.33,-47.59 182.36,-37.11 177.44,-28.46"/>
<polygon fill="midnightblue" stroke="midnightblue" points="180.41,-26.61 172.43,-19.65 174.33,-30.07 180.41,-26.61"/>
</g>
<!-- Node5 -->
<g id="node5" class="node">
<title>Node5</title>
<g id="a_node5"><a xlink:title=" ">
<polygon fill="none" stroke="#bfbfbf" points="213.5,-0.5 213.5,-19.5 269.5,-19.5 269.5,-0.5 213.5,-0.5"/>
<text text-anchor="middle" x="241.5" y="-7.5" font-family="Helvetica,sans-Serif" font-size="10.00">assert.h</text>
</a>
</g>
</g>
<!-- Node1&#45;&gt;Node5 -->
<g id="edge4" class="edge">
<title>Node1&#45;&gt;Node5</title>
<path fill="none" stroke="midnightblue" d="M215.6,-56.5C220.67,-47.59 226.64,-37.11 231.56,-28.46"/>
<polygon fill="midnightblue" stroke="midnightblue" points="234.67,-30.07 236.57,-19.65 228.59,-26.61 234.67,-30.07"/>
</g>
<!-- Node6 -->
<g id="node6" class="node">
<title>Node6</title>
<g id="a_node6"><a xlink:title=" ">
<polygon fill="none" stroke="#bfbfbf" points="288,-0.5 288,-19.5 341,-19.5 341,-0.5 288,-0.5"/>
<text text-anchor="middle" x="314.5" y="-7.5" font-family="Helvetica,sans-Serif" font-size="10.00">string.h</text>
</a>
</g>
</g>
<!-- Node1&#45;&gt;Node6 -->
<g id="edge5" class="edge">
<title>Node1&#45;&gt;Node6</title>
<path fill="none" stroke="midnightblue" d="M237.5,-56.5C254.69,-46.34 275.31,-34.16 290.89,-24.95"/>
<polygon fill="midnightblue" stroke="midnightblue" points="293.03,-27.75 299.86,-19.65 289.47,-21.73 293.03,-27.75"/>
</g>
<!-- Node7 -->
<g id="node7" class="node">
<title>Node7</title>
<g id="a_node7"><a xlink:title=" ">
<polygon fill="none" stroke="#bfbfbf" points="359,-0.5 359,-19.5 406,-19.5 406,-0.5 359,-0.5"/>
<text text-anchor="middle" x="382.5" y="-7.5" font-family="Helvetica,sans-Serif" font-size="10.00">fcntl.h</text>
</a>
</g>
</g>
<!-- Node1&#45;&gt;Node7 -->
<g id="edge6" class="edge">
<title>Node1&#45;&gt;Node7</title>
<path fill="none" stroke="midnightblue" d="M257.91,-56.5C287.56,-45.67 323.52,-32.54 349.17,-23.17"/>
<polygon fill="midnightblue" stroke="midnightblue" points="350.61,-26.37 358.81,-19.65 348.21,-19.8 350.61,-26.37"/>
</g>
</g>
</svg>
