<?xml version="1.0" encoding="UTF-8" standalone="no"?>
<!DOCTYPE svg PUBLIC "-//W3C//DTD SVG 1.1//EN"
 "http://www.w3.org/Graphics/SVG/1.1/DTD/svg11.dtd">
<!-- Generated by graphviz version 2.43.0 (0)
 -->
<!-- Title: src/C&#45;Unix&#45;STD&#45;Explore&#45;File&#45;Directories/Es1.c Pages: 1 -->
<svg width="520pt" height="95pt"
 viewBox="0.00 0.00 519.50 95.00" xmlns="http://www.w3.org/2000/svg" xmlns:xlink="http://www.w3.org/1999/xlink">
<g id="graph0" class="graph" transform="scale(1 1) rotate(0) translate(4 91)">
<title>src/C&#45;Unix&#45;STD&#45;Explore&#45;File&#45;Directories/Es1.c</title>
<!-- Node1 -->
<g id="node1" class="node">
<title>Node1</title>
<g id="a_node1"><a xlink:title=" ">
<polygon fill="#bfbfbf" stroke="black" points="196.5,-56.5 196.5,-86.5 327.5,-86.5 327.5,-56.5 196.5,-56.5"/>
<text text-anchor="start" x="204.5" y="-74.5" font-family="Helvetica,sans-Serif" font-size="10.00">src/C&#45;Unix&#45;STD&#45;Explore</text>
<text text-anchor="middle" x="262" y="-63.5" font-family="Helvetica,sans-Serif" font-size="10.00">&#45;File&#45;Directories/Es1.c</text>
</a>
</g>
</g>
<!-- Node2 -->
<g id="node2" class="node">
<title>Node2</title>
<g id="a_node2"><a xlink:title=" ">
<polygon fill="none" stroke="#bfbfbf" points="0,-0.5 0,-19.5 50,-19.5 50,-0.5 0,-0.5"/>
<text text-anchor="middle" x="25" y="-7.5" font-family="Helvetica,sans-Serif" font-size="10.00">stdio.h</text>
</a>
</g>
</g>
<!-- Node1&#45;&gt;Node2 -->
<g id="edge1" class="edge">
<title>Node1&#45;&gt;Node2</title>
<path fill="none" stroke="midnightblue" d="M204.63,-56.47C166.25,-47.03 114.35,-34.16 60.05,-20.24"/>
<polygon fill="midnightblue" stroke="midnightblue" points="60.8,-16.82 50.24,-17.73 59.06,-23.6 60.8,-16.82"/>
</g>
<!-- Node3 -->
<g id="node3" class="node">
<title>Node3</title>
<g id="a_node3"><a xlink:title=" ">
<polygon fill="none" stroke="#bfbfbf" points="68.5,-0.5 68.5,-19.5 121.5,-19.5 121.5,-0.5 68.5,-0.5"/>
<text text-anchor="middle" x="95" y="-7.5" font-family="Helvetica,sans-Serif" font-size="10.00">stdlib.h</text>
</a>
</g>
</g>
<!-- Node1&#45;&gt;Node3 -->
<g id="edge2" class="edge">
<title>Node1&#45;&gt;Node3</title>
<path fill="none" stroke="midnightblue" d="M222.42,-56.4C193.9,-46.24 155.83,-32.67 128.74,-23.02"/>
<polygon fill="midnightblue" stroke="midnightblue" points="129.89,-19.72 119.3,-19.66 127.55,-26.31 129.89,-19.72"/>
</g>
<!-- Node4 -->
<g id="node4" class="node">
<title>Node4</title>
<g id="a_node4"><a xlink:title=" ">
<polygon fill="none" stroke="#bfbfbf" points="140,-0.5 140,-19.5 212,-19.5 212,-0.5 140,-0.5"/>
<text text-anchor="middle" x="176" y="-7.5" font-family="Helvetica,sans-Serif" font-size="10.00">sys/types.h</text>
</a>
</g>
</g>
<!-- Node1&#45;&gt;Node4 -->
<g id="edge3" class="edge">
<title>Node1&#45;&gt;Node4</title>
<path fill="none" stroke="midnightblue" d="M241.62,-56.4C228.09,-47.04 210.39,-34.79 196.78,-25.38"/>
<polygon fill="midnightblue" stroke="midnightblue" points="198.73,-22.47 188.51,-19.66 194.75,-28.23 198.73,-22.47"/>
</g>
<!-- Node5 -->
<g id="node5" class="node">
<title>Node5</title>
<g id="a_node5"><a xlink:title=" ">
<polygon fill="none" stroke="#bfbfbf" points="230,-0.5 230,-19.5 294,-19.5 294,-0.5 230,-0.5"/>
<text text-anchor="middle" x="262" y="-7.5" font-family="Helvetica,sans-Serif" font-size="10.00">sys/stat.h</text>
</a>
</g>
</g>
<!-- Node1&#45;&gt;Node5 -->
<g id="edge4" class="edge">
<title>Node1&#45;&gt;Node5</title>
<path fill="none" stroke="midnightblue" d="M262,-56.4C262,-48.47 262,-38.46 262,-29.86"/>
<polygon fill="midnightblue" stroke="midnightblue" points="265.5,-29.66 262,-19.66 258.5,-29.66 265.5,-29.66"/>
</g>
<!-- Node6 -->
<g id="node6" class="node">
<title>Node6</title>
<g id="a_node6"><a xlink:title=" ">
<polygon fill="none" stroke="#bfbfbf" points="312,-0.5 312,-19.5 368,-19.5 368,-0.5 312,-0.5"/>
<text text-anchor="middle" x="340" y="-7.5" font-family="Helvetica,sans-Serif" font-size="10.00">unistd.h</text>
</a>
</g>
</g>
<!-- Node1&#45;&gt;Node6 -->
<g id="edge5" class="edge">
<title>Node1&#45;&gt;Node6</title>
<path fill="none" stroke="midnightblue" d="M280.48,-56.4C292.52,-47.22 308.2,-35.26 320.44,-25.92"/>
<polygon fill="midnightblue" stroke="midnightblue" points="322.82,-28.51 328.65,-19.66 318.58,-22.94 322.82,-28.51"/>
</g>
<!-- Node7 -->
<g id="node7" class="node">
<title>Node7</title>
<g id="a_node7"><a xlink:title=" ">
<polygon fill="none" stroke="#bfbfbf" points="386,-0.5 386,-19.5 440,-19.5 440,-0.5 386,-0.5"/>
<text text-anchor="middle" x="413" y="-7.5" font-family="Helvetica,sans-Serif" font-size="10.00">dirent.h</text>
</a>
</g>
</g>
<!-- Node1&#45;&gt;Node7 -->
<g id="edge6" class="edge">
<title>Node1&#45;&gt;Node7</title>
<path fill="none" stroke="midnightblue" d="M297.78,-56.4C323.23,-46.37 357.1,-33.03 381.52,-23.4"/>
<polygon fill="midnightblue" stroke="midnightblue" points="383.01,-26.58 391.03,-19.66 380.44,-20.07 383.01,-26.58"/>
</g>
<!-- Node8 -->
<g id="node8" class="node">
<title>Node8</title>
<g id="a_node8"><a xlink:title=" ">
<polygon fill="none" stroke="#bfbfbf" points="458.5,-0.5 458.5,-19.5 511.5,-19.5 511.5,-0.5 458.5,-0.5"/>
<text text-anchor="middle" x="485" y="-7.5" font-family="Helvetica,sans-Serif" font-size="10.00">string.h</text>
</a>
</g>
</g>
<!-- Node1&#45;&gt;Node8 -->
<g id="edge7" class="edge">
<title>Node1&#45;&gt;Node8</title>
<path fill="none" stroke="midnightblue" d="M314.57,-56.47C355.88,-45.45 412.34,-30.39 448.74,-20.67"/>
<polygon fill="midnightblue" stroke="midnightblue" points="449.69,-24.04 458.45,-18.08 447.88,-17.28 449.69,-24.04"/>
</g>
</g>
</svg>
