<?xml version="1.0" encoding="UTF-8" standalone="no"?>
<!DOCTYPE svg PUBLIC "-//W3C//DTD SVG 1.1//EN"
 "http://www.w3.org/Graphics/SVG/1.1/DTD/svg11.dtd">
<!-- Generated by graphviz version 2.43.0 (0)
 -->
<!-- Title: src/C&#45;Unix&#45;STD&#45;Copy&#45;DirectoryTree/Es2.c Pages: 1 -->
<svg width="588pt" height="95pt"
 viewBox="0.00 0.00 587.50 95.00" xmlns="http://www.w3.org/2000/svg" xmlns:xlink="http://www.w3.org/1999/xlink">
<g id="graph0" class="graph" transform="scale(1 1) rotate(0) translate(4 91)">
<title>src/C&#45;Unix&#45;STD&#45;Copy&#45;DirectoryTree/Es2.c</title>
<!-- Node1 -->
<g id="node1" class="node">
<title>Node1</title>
<g id="a_node1"><a xlink:title=" ">
<polygon fill="#bfbfbf" stroke="black" points="241.5,-56.5 241.5,-86.5 360.5,-86.5 360.5,-56.5 241.5,-56.5"/>
<text text-anchor="start" x="249.5" y="-74.5" font-family="Helvetica,sans-Serif" font-size="10.00">src/C&#45;Unix&#45;STD&#45;Copy</text>
<text text-anchor="middle" x="301" y="-63.5" font-family="Helvetica,sans-Serif" font-size="10.00">&#45;DirectoryTree/Es2.c</text>
</a>
</g>
</g>
<!-- Node2 -->
<g id="node2" class="node">
<title>Node2</title>
<g id="a_node2"><a xlink:title=" ">
<polygon fill="none" stroke="#bfbfbf" points="0,-0.5 0,-19.5 50,-19.5 50,-0.5 0,-0.5"/>
<text text-anchor="middle" x="25" y="-7.5" font-family="Helvetica,sans-Serif" font-size="10.00">stdio.h</text>
</a>
</g>
</g>
<!-- Node1&#45;&gt;Node2 -->
<g id="edge1" class="edge">
<title>Node1&#45;&gt;Node2</title>
<path fill="none" stroke="midnightblue" d="M241.13,-58.93C194.34,-49.67 127.44,-35.98 60.14,-20.18"/>
<polygon fill="midnightblue" stroke="midnightblue" points="60.75,-16.73 50.21,-17.83 59.14,-23.54 60.75,-16.73"/>
</g>
<!-- Node3 -->
<g id="node3" class="node">
<title>Node3</title>
<g id="a_node3"><a xlink:title=" ">
<polygon fill="none" stroke="#bfbfbf" points="68.5,-0.5 68.5,-19.5 121.5,-19.5 121.5,-0.5 68.5,-0.5"/>
<text text-anchor="middle" x="95" y="-7.5" font-family="Helvetica,sans-Serif" font-size="10.00">stdlib.h</text>
</a>
</g>
</g>
<!-- Node1&#45;&gt;Node3 -->
<g id="edge2" class="edge">
<title>Node1&#45;&gt;Node3</title>
<path fill="none" stroke="midnightblue" d="M252.44,-56.47C215.36,-45.76 165.06,-31.24 131.39,-21.51"/>
<polygon fill="midnightblue" stroke="midnightblue" points="132.09,-18.07 121.51,-18.66 130.15,-24.8 132.09,-18.07"/>
</g>
<!-- Node4 -->
<g id="node4" class="node">
<title>Node4</title>
<g id="a_node4"><a xlink:title=" ">
<polygon fill="none" stroke="#bfbfbf" points="140,-0.5 140,-19.5 212,-19.5 212,-0.5 140,-0.5"/>
<text text-anchor="middle" x="176" y="-7.5" font-family="Helvetica,sans-Serif" font-size="10.00">sys/types.h</text>
</a>
</g>
</g>
<!-- Node1&#45;&gt;Node4 -->
<g id="edge3" class="edge">
<title>Node1&#45;&gt;Node4</title>
<path fill="none" stroke="midnightblue" d="M271.38,-56.4C250.78,-46.59 223.52,-33.62 203.42,-24.05"/>
<polygon fill="midnightblue" stroke="midnightblue" points="204.72,-20.8 194.19,-19.66 201.71,-27.12 204.72,-20.8"/>
</g>
<!-- Node5 -->
<g id="node5" class="node">
<title>Node5</title>
<g id="a_node5"><a xlink:title=" ">
<polygon fill="none" stroke="#bfbfbf" points="230,-0.5 230,-19.5 294,-19.5 294,-0.5 230,-0.5"/>
<text text-anchor="middle" x="262" y="-7.5" font-family="Helvetica,sans-Serif" font-size="10.00">sys/stat.h</text>
</a>
</g>
</g>
<!-- Node1&#45;&gt;Node5 -->
<g id="edge4" class="edge">
<title>Node1&#45;&gt;Node5</title>
<path fill="none" stroke="midnightblue" d="M291.76,-56.4C286.21,-47.93 279.11,-37.1 273.23,-28.14"/>
<polygon fill="midnightblue" stroke="midnightblue" points="276.08,-26.1 267.67,-19.66 270.23,-29.94 276.08,-26.1"/>
</g>
<!-- Node6 -->
<g id="node6" class="node">
<title>Node6</title>
<g id="a_node6"><a xlink:title=" ">
<polygon fill="none" stroke="#bfbfbf" points="312,-0.5 312,-19.5 368,-19.5 368,-0.5 312,-0.5"/>
<text text-anchor="middle" x="340" y="-7.5" font-family="Helvetica,sans-Serif" font-size="10.00">unistd.h</text>
</a>
</g>
</g>
<!-- Node1&#45;&gt;Node6 -->
<g id="edge5" class="edge">
<title>Node1&#45;&gt;Node6</title>
<path fill="none" stroke="midnightblue" d="M310.24,-56.4C315.79,-47.93 322.89,-37.1 328.77,-28.14"/>
<polygon fill="midnightblue" stroke="midnightblue" points="331.77,-29.94 334.33,-19.66 325.92,-26.1 331.77,-29.94"/>
</g>
<!-- Node7 -->
<g id="node7" class="node">
<title>Node7</title>
<g id="a_node7"><a xlink:title=" ">
<polygon fill="none" stroke="#bfbfbf" points="386,-0.5 386,-19.5 440,-19.5 440,-0.5 386,-0.5"/>
<text text-anchor="middle" x="413" y="-7.5" font-family="Helvetica,sans-Serif" font-size="10.00">dirent.h</text>
</a>
</g>
</g>
<!-- Node1&#45;&gt;Node7 -->
<g id="edge6" class="edge">
<title>Node1&#45;&gt;Node7</title>
<path fill="none" stroke="midnightblue" d="M327.54,-56.4C345.66,-46.77 369.54,-34.09 387.44,-24.58"/>
<polygon fill="midnightblue" stroke="midnightblue" points="389.51,-27.44 396.7,-19.66 386.23,-21.26 389.51,-27.44"/>
</g>
<!-- Node8 -->
<g id="node8" class="node">
<title>Node8</title>
<g id="a_node8"><a xlink:title=" ">
<polygon fill="none" stroke="#bfbfbf" points="458,-0.5 458,-19.5 514,-19.5 514,-0.5 458,-0.5"/>
<text text-anchor="middle" x="486" y="-7.5" font-family="Helvetica,sans-Serif" font-size="10.00">assert.h</text>
</a>
</g>
</g>
<!-- Node1&#45;&gt;Node8 -->
<g id="edge7" class="edge">
<title>Node1&#45;&gt;Node8</title>
<path fill="none" stroke="midnightblue" d="M344.84,-56.4C376.81,-46.12 419.62,-32.35 449.68,-22.68"/>
<polygon fill="midnightblue" stroke="midnightblue" points="450.9,-25.96 459.35,-19.57 448.76,-19.3 450.9,-25.96"/>
</g>
<!-- Node9 -->
<g id="node9" class="node">
<title>Node9</title>
<g id="a_node9"><a xlink:title=" ">
<polygon fill="none" stroke="#bfbfbf" points="532.5,-0.5 532.5,-19.5 579.5,-19.5 579.5,-0.5 532.5,-0.5"/>
<text text-anchor="middle" x="556" y="-7.5" font-family="Helvetica,sans-Serif" font-size="10.00">fcntl.h</text>
</a>
</g>
</g>
<!-- Node1&#45;&gt;Node9 -->
<g id="edge8" class="edge">
<title>Node1&#45;&gt;Node9</title>
<path fill="none" stroke="midnightblue" d="M360.53,-57.68C403.05,-48.36 461.83,-35.13 522.49,-20.05"/>
<polygon fill="midnightblue" stroke="midnightblue" points="523.39,-23.43 532.24,-17.61 521.69,-16.64 523.39,-23.43"/>
</g>
</g>
</svg>
