<?xml version="1.0" encoding="UTF-8" standalone="no"?>
<!DOCTYPE svg PUBLIC "-//W3C//DTD SVG 1.1//EN"
 "http://www.w3.org/Graphics/SVG/1.1/DTD/svg11.dtd">
<!-- Generated by graphviz version 2.43.0 (0)
 -->
<!-- Title: src/C&#45;Unix&#45;STD&#45;Basic&#45;Fork/Es3.c Pages: 1 -->
<svg width="204pt" height="95pt"
 viewBox="0.00 0.00 203.50 95.00" xmlns="http://www.w3.org/2000/svg" xmlns:xlink="http://www.w3.org/1999/xlink">
<g id="graph0" class="graph" transform="scale(1 1) rotate(0) translate(4 91)">
<title>src/C&#45;Unix&#45;STD&#45;Basic&#45;Fork/Es3.c</title>
<!-- Node1 -->
<g id="node1" class="node">
<title>Node1</title>
<g id="a_node1"><a xlink:title=" ">
<polygon fill="#bfbfbf" stroke="black" points="36.5,-56.5 36.5,-86.5 156.5,-86.5 156.5,-56.5 36.5,-56.5"/>
<text text-anchor="start" x="44.5" y="-74.5" font-family="Helvetica,sans-Serif" font-size="10.00">src/C&#45;Unix&#45;STD&#45;Basic</text>
<text text-anchor="middle" x="96.5" y="-63.5" font-family="Helvetica,sans-Serif" font-size="10.00">&#45;Fork/Es3.c</text>
</a>
</g>
</g>
<!-- Node2 -->
<g id="node2" class="node">
<title>Node2</title>
<g id="a_node2"><a xlink:title=" ">
<polygon fill="none" stroke="#bfbfbf" points="0,-0.5 0,-19.5 53,-19.5 53,-0.5 0,-0.5"/>
<text text-anchor="middle" x="26.5" y="-7.5" font-family="Helvetica,sans-Serif" font-size="10.00">stdlib.h</text>
</a>
</g>
</g>
<!-- Node1&#45;&gt;Node2 -->
<g id="edge1" class="edge">
<title>Node1&#45;&gt;Node2</title>
<path fill="none" stroke="midnightblue" d="M79.91,-56.4C69.21,-47.31 55.31,-35.49 44.37,-26.19"/>
<polygon fill="midnightblue" stroke="midnightblue" points="46.57,-23.47 36.69,-19.66 42.04,-28.8 46.57,-23.47"/>
</g>
<!-- Node3 -->
<g id="node3" class="node">
<title>Node3</title>
<g id="a_node3"><a xlink:title=" ">
<polygon fill="none" stroke="#bfbfbf" points="71.5,-0.5 71.5,-19.5 121.5,-19.5 121.5,-0.5 71.5,-0.5"/>
<text text-anchor="middle" x="96.5" y="-7.5" font-family="Helvetica,sans-Serif" font-size="10.00">stdio.h</text>
</a>
</g>
</g>
<!-- Node1&#45;&gt;Node3 -->
<g id="edge2" class="edge">
<title>Node1&#45;&gt;Node3</title>
<path fill="none" stroke="midnightblue" d="M96.5,-56.4C96.5,-48.47 96.5,-38.46 96.5,-29.86"/>
<polygon fill="midnightblue" stroke="midnightblue" points="100,-29.66 96.5,-19.66 93,-29.66 100,-29.66"/>
</g>
<!-- Node4 -->
<g id="node4" class="node">
<title>Node4</title>
<g id="a_node4"><a xlink:title=" ">
<polygon fill="none" stroke="#bfbfbf" points="139.5,-0.5 139.5,-19.5 195.5,-19.5 195.5,-0.5 139.5,-0.5"/>
<text text-anchor="middle" x="167.5" y="-7.5" font-family="Helvetica,sans-Serif" font-size="10.00">unistd.h</text>
</a>
</g>
</g>
<!-- Node1&#45;&gt;Node4 -->
<g id="edge3" class="edge">
<title>Node1&#45;&gt;Node4</title>
<path fill="none" stroke="midnightblue" d="M113.33,-56.4C124.17,-47.31 138.28,-35.49 149.37,-26.19"/>
<polygon fill="midnightblue" stroke="midnightblue" points="151.75,-28.76 157.17,-19.66 147.26,-23.4 151.75,-28.76"/>
</g>
</g>
</svg>
